<?xml version="1.0" encoding="UTF-8" standalone="no"?>
<!-- Created with Inkscape (http://www.inkscape.org/) -->

<svg
   xmlns:dc="http://purl.org/dc/elements/1.1/"
   xmlns:cc="http://creativecommons.org/ns#"
   xmlns:rdf="http://www.w3.org/1999/02/22-rdf-syntax-ns#"
   xmlns:svg="http://www.w3.org/2000/svg"
   xmlns="http://www.w3.org/2000/svg"
   xmlns:sodipodi="http://sodipodi.sourceforge.net/DTD/sodipodi-0.dtd"
   xmlns:inkscape="http://www.inkscape.org/namespaces/inkscape"
   id="svg2"
   version="1.1"
   inkscape:version="0.91 r13725"
   xml:space="preserve"
   width="300"
   height="300"
   viewBox="0 0 300 300"
   sodipodi:docname="openflare.svg"
   inkscape:export-filename="C:\Users\David\Pictures\Edits\OpenFlare.png"
   inkscape:export-xdpi="243.12112"
   inkscape:export-ydpi="243.12112"><metadata
     id="metadata8"><rdf:RDF><cc:Work
         rdf:about=""><dc:format>image/svg+xml</dc:format><dc:type
           rdf:resource="http://purl.org/dc/dcmitype/StillImage" /><dc:title></dc:title></cc:Work></rdf:RDF></metadata><defs
     id="defs6" /><sodipodi:namedview
     pagecolor="#ffffff"
     bordercolor="#666666"
     borderopacity="1"
     objecttolerance="10"
     gridtolerance="10"
     guidetolerance="10"
     inkscape:pageopacity="0"
     inkscape:pageshadow="2"
     inkscape:window-width="1366"
     inkscape:window-height="715"
     id="namedview4"
     showgrid="false"
     inkscape:zoom="0.99999999"
     inkscape:cx="298.33285"
     inkscape:cy="109.13973"
     inkscape:window-x="-8"
     inkscape:window-y="-8"
     inkscape:window-maximized="1"
     inkscape:current-layer="g10"
     fit-margin-top="0"
     fit-margin-left="0"
     fit-margin-right="0"
     fit-margin-bottom="0" /><g
     id="g10"
     inkscape:groupmode="layer"
     inkscape:label="OpenFlare Logo"
     transform="matrix(1.25,0,0,-1.25,0.90650526,394.02062)"><g
       id="g4135"
       transform="matrix(0.97343338,0,0,0.97343338,-132.40621,44.475634)"><path
         inkscape:connector-curvature="0"
         id="path14"
         d="m 258.1748,48.0249 c -20.4431,0.03333 -40.94142,-0.06666 -61.35,0.05 -20.51667,35.566667 -41.03333,71.13333 -61.55,106.7 20.53333,35.58333 41.06667,71.16667 61.6,106.75 20.43333,0 40.86667,0 61.3,0 3.0233,-0.08 8.38537,0.0583 12.34114,0 16.55296,0 33.10591,0 49.65886,0 20.55,-35.58333 41.1,-71.16667 61.65,-106.75 -20.25,-35.05 -40.5,-70.1 -60.75,-105.15 -10.4,17.783333 -20.8,35.566667 -31.2,53.35 9.96667,17.26667 19.93333,34.53333 29.9,51.8 -20.43333,35.41667 -40.86667,70.83333 -61.3,106.25 -20.43333,-35.41667 -40.86667,-70.83333 -61.3,-106.25 20.45,-35.55 40.9,-71.1 61.35,-106.65 l -0.35,-0.1 0,0 z"
         style="fill:#333333;fill-opacity:1;fill-rule:evenodd;stroke:none" /><path
         inkscape:connector-curvature="0"
         id="path14-0-1-2"
         d="m 273.45469,235.00781 c -10.05035,-17.40439 -20.09655,-34.81507 -30.14531,-52.22187 10.4,-17.78334 20.8,-35.56667 31.2,-53.35 20.33135,35.18445 40.6636,70.38228 60.99531,105.57187 -20.68334,0 -41.36667,0 -62.05,0 z"
         style="fill:#333333;fill-opacity:1;fill-rule:evenodd;stroke:none" /></g></g></svg>