<?xml version="1.0" standalone="no"?>
<!DOCTYPE svg PUBLIC "-//W3C//DTD SVG 20010904//EN"
 "http://www.w3.org/TR/2001/REC-SVG-20010904/DTD/svg10.dtd">
<svg version="1.0" xmlns="http://www.w3.org/2000/svg"
 width="700.000000pt" height="700.000000pt" viewBox="0 0 700.000000 700.000000"
 preserveAspectRatio="xMidYMid meet">
<metadata>
Created by potrace 1.11, written by Peter Selinger 2001-2013
</metadata>
<g transform="translate(0.000000,700.000000) scale(0.100000,-0.100000)"
fill="#000000" stroke="none">
<path d="M1758 6532 c-8 -2 -22 -17 -32 -35 -9 -18 -24 -45 -33 -62 -9 -16
-19 -32 -22 -35 -3 -3 -13 -19 -22 -35 -44 -83 -122 -210 -129 -213 -5 -2 -6
-10 -3 -18 3 -8 0 -14 -6 -14 -6 0 -11 -4 -11 -10 0 -5 -17 -38 -38 -72 -20
-35 -46 -80 -57 -100 -10 -20 -23 -34 -27 -32 -5 3 -7 2 -6 -3 4 -14 -13 -53
-23 -53 -5 0 -8 -3 -7 -7 3 -16 -25 -62 -35 -56 -6 3 -7 1 -3 -5 8 -14 -28
-74 -39 -64 -5 4 -5 2 -2 -5 4 -6 -15 -47 -42 -91 -27 -44 -47 -83 -43 -86 3
-3 0 -6 -6 -6 -5 0 -14 -10 -19 -22 -4 -13 -24 -49 -43 -82 -74 -123 -90 -152
-100 -174 -6 -14 -15 -20 -22 -16 -7 4 -8 3 -4 -5 4 -6 -9 -38 -28 -70 -20
-32 -36 -63 -36 -68 0 -5 -8 -18 -17 -29 -10 -10 -28 -37 -39 -59 -23 -42 -84
-151 -126 -223 -13 -23 -28 -39 -32 -35 -4 4 -4 1 -1 -8 3 -8 -4 -25 -15 -37
-11 -12 -18 -22 -15 -22 4 0 -2 -12 -12 -27 -10 -16 -28 -45 -38 -65 -11 -21
-24 -38 -29 -38 -5 0 -6 -3 -3 -7 4 -3 0 -15 -10 -25 -9 -10 -12 -18 -7 -18 5
0 4 -4 -2 -8 -6 -4 -34 -50 -64 -102 -29 -52 -62 -107 -72 -122 -11 -16 -16
-28 -11 -28 4 0 0 -7 -10 -14 -10 -8 -17 -17 -16 -21 1 -4 -12 -28 -28 -53
-16 -26 -38 -64 -48 -84 -11 -21 -23 -38 -27 -38 -5 0 -7 -3 -6 -7 4 -17 -26
-62 -36 -56 -6 3 -8 3 -4 -2 7 -7 -12 -46 -71 -145 -11 -19 -26 -46 -33 -60
-7 -14 -15 -27 -19 -30 -3 -3 -8 -12 -12 -20 -3 -8 -20 -37 -37 -65 -17 -27
-33 -58 -36 -67 -4 -10 -10 -18 -15 -18 -5 0 -8 -3 -7 -7 1 -5 -4 -20 -11 -34
-12 -23 -10 -31 13 -67 14 -23 26 -44 26 -47 0 -3 12 -24 27 -48 14 -23 26
-48 26 -54 0 -7 4 -13 9 -13 5 0 16 -15 24 -32 8 -18 30 -58 49 -88 19 -30 44
-73 55 -95 12 -22 34 -62 51 -90 16 -27 33 -58 36 -67 3 -10 9 -18 14 -18 5 0
9 -4 9 -10 0 -5 14 -33 31 -62 33 -55 53 -90 90 -155 12 -21 30 -50 40 -64 14
-20 15 -29 6 -38 -9 -10 -8 -11 6 -6 13 6 18 1 23 -24 4 -17 10 -28 15 -25 5
3 9 0 9 -6 0 -6 18 -40 40 -76 22 -36 40 -69 40 -74 0 -4 8 -18 18 -31 11 -13
32 -49 49 -79 49 -91 58 -105 68 -112 5 -4 6 -10 2 -14 -4 -4 -1 -12 7 -18 7
-6 28 -38 46 -71 17 -33 38 -67 45 -75 8 -8 14 -18 14 -23 0 -4 26 -51 57
-105 32 -53 57 -102 57 -109 0 -7 4 -10 9 -7 4 3 8 1 8 -5 0 -6 13 -31 30 -57
16 -26 27 -51 24 -55 -3 -5 0 -9 6 -9 6 0 14 -8 17 -17 4 -10 18 -33 30 -52
13 -19 21 -41 18 -48 -2 -8 -1 -12 4 -9 5 3 18 -12 29 -33 33 -62 46 -86 54
-91 4 -3 12 -17 18 -30 5 -14 24 -47 40 -75 17 -27 33 -57 37 -65 3 -8 11 -22
18 -30 7 -8 23 -35 36 -60 13 -25 34 -60 46 -79 13 -18 20 -37 17 -42 -3 -5
-1 -9 4 -9 7 0 85 -131 203 -341 9 -16 22 -35 29 -43 6 -9 8 -21 4 -27 -4 -8
-3 -9 4 -5 7 4 12 2 12 -4 0 -6 9 -23 20 -38 l21 -28 872 1 c866 0 872 0 869
20 -2 11 -9 23 -15 27 -7 4 -7 8 -2 8 7 0 7 3 0 8 -9 6 -23 29 -59 97 -6 11
-13 22 -16 25 -9 9 -51 84 -63 113 -6 15 -15 27 -19 27 -4 0 -8 5 -8 11 0 6
-9 24 -21 40 -11 16 -17 34 -13 40 4 7 3 9 -3 6 -12 -8 -55 71 -46 85 3 6 2 8
-4 5 -9 -5 -33 31 -67 100 -6 13 -14 23 -18 23 -5 0 -8 7 -8 15 0 8 -8 24 -17
35 -10 11 -17 24 -16 28 1 4 -4 14 -11 22 -7 8 -24 35 -37 60 -13 25 -28 48
-34 52 -5 4 -6 8 -1 8 5 0 2 8 -6 18 -9 9 -28 40 -43 67 -15 28 -37 68 -50 90
-13 21 -21 44 -18 50 4 5 3 7 -2 3 -9 -9 -86 118 -88 144 -1 9 -4 15 -7 13 -7
-4 -74 109 -71 119 1 4 -8 16 -19 28 -11 12 -20 28 -20 35 0 7 -4 13 -9 13 -5
0 -14 12 -20 27 -6 16 -15 35 -21 43 -26 39 -150 262 -150 270 0 6 -4 10 -9
10 -5 0 -11 8 -15 17 -6 18 -34 68 -74 132 -11 19 -19 38 -16 43 3 4 1 8 -4 8
-14 0 -52 76 -44 86 4 4 1 4 -6 0 -11 -6 -17 5 -13 27 0 4 -3 7 -8 7 -8 0 -33
42 -65 107 -6 13 -14 23 -18 23 -5 0 -8 9 -8 20 0 11 -4 20 -8 20 -8 0 -36 51
-32 59 1 2 -3 7 -8 10 -5 3 -33 49 -62 101 -29 52 -60 103 -68 113 -8 9 -11
17 -7 17 4 0 1 8 -7 18 -24 28 -111 183 -111 198 0 7 -4 11 -9 8 -4 -3 -8 0
-8 5 0 6 0 13 0 16 0 3 -9 14 -20 25 -12 12 -18 25 -15 30 3 4 2 10 -3 12 -16
7 -53 78 -46 89 4 7 3 9 -3 6 -13 -8 -44 48 -37 67 3 9 9 16 13 16 4 0 15 18
25 40 10 23 22 37 28 34 7 -4 8 -2 4 5 -4 6 1 23 12 39 10 15 22 34 25 42 4 8
21 38 37 65 16 28 40 69 52 93 12 23 26 42 30 42 4 0 8 6 8 13 0 7 11 29 25
48 13 20 21 39 18 43 -4 3 -1 6 5 6 7 0 12 4 12 9 0 22 72 131 82 125 7 -4 8
-2 4 5 -9 14 55 132 68 124 5 -4 6 -1 1 7 -5 8 -1 18 11 27 10 8 17 16 15 19
-3 5 12 34 84 159 17 29 52 91 79 138 27 47 54 83 59 80 6 -3 7 -1 3 6 -4 6 0
24 10 39 10 15 24 36 30 47 54 100 79 142 90 156 8 8 14 18 14 22 0 4 20 41
45 83 25 41 45 80 45 85 0 5 5 9 10 9 6 0 10 6 10 14 0 8 7 22 16 30 8 9 12
16 8 16 -4 0 -1 8 7 18 8 9 25 37 39 62 13 25 26 47 29 50 3 3 13 19 21 35 8
17 41 75 74 130 76 130 95 162 118 208 11 20 24 37 30 37 5 0 7 4 3 9 -3 5 1
15 8 23 7 7 26 39 42 72 16 32 35 60 42 63 6 3 9 11 6 19 -3 8 -1 14 5 14 5 0
12 8 15 18 4 9 18 37 33 62 15 25 35 59 45 75 10 17 30 53 45 80 14 28 29 52
33 55 3 3 17 28 31 55 14 28 37 68 51 90 15 22 37 61 51 86 l24 47 29 -45 c15
-25 28 -52 28 -59 0 -8 3 -12 5 -9 3 3 15 -13 26 -34 12 -21 32 -58 46 -82 13
-24 23 -47 22 -51 -1 -5 2 -8 7 -8 5 0 16 -15 25 -32 9 -18 29 -55 46 -83 16
-27 33 -57 37 -65 3 -8 10 -18 15 -21 5 -3 10 -15 11 -27 0 -11 4 -19 7 -17 3
2 17 -17 30 -43 14 -26 27 -49 30 -52 3 -3 17 -28 32 -56 l27 -50 -21 -35
c-11 -19 -23 -36 -27 -39 -3 -3 -7 -11 -9 -19 -2 -8 -11 -26 -21 -40 -9 -14
-25 -43 -36 -63 -10 -20 -22 -35 -27 -32 -4 3 -5 -2 -2 -10 3 -9 2 -16 -4 -16
-5 0 -12 -10 -16 -23 -3 -13 -15 -34 -26 -47 -11 -13 -20 -29 -20 -37 0 -7 -3
-13 -7 -13 -5 0 -17 -20 -28 -45 -11 -25 -22 -45 -25 -45 -4 0 -12 -16 -20
-35 -8 -19 -17 -35 -22 -35 -4 0 -8 -7 -8 -16 0 -8 -4 -13 -9 -10 -5 3 -8 0
-7 -7 2 -17 -76 -147 -85 -141 -4 2 -5 -5 -2 -16 3 -11 0 -20 -6 -20 -6 0 -11
-7 -11 -15 0 -8 -5 -15 -11 -15 -5 0 -8 -4 -4 -9 3 -5 1 -12 -5 -16 -6 -4 -22
-29 -36 -56 -15 -30 -29 -47 -36 -43 -7 4 -8 3 -4 -4 6 -10 -17 -65 -34 -82
-3 -3 -16 -26 -30 -53 -14 -26 -30 -45 -36 -43 -7 3 -9 -5 -6 -20 2 -14 0 -24
-7 -24 -6 0 -11 -4 -11 -9 0 -21 -77 -141 -86 -134 -5 5 -6 4 -2 -1 9 -11 -29
-86 -44 -86 -6 0 -8 -3 -5 -6 7 -7 -19 -59 -40 -82 -18 -19 -16 -57 3 -76 8
-9 13 -16 10 -16 -3 0 17 -36 45 -80 27 -44 46 -80 42 -80 -5 0 0 -5 10 -11 9
-5 17 -19 17 -29 0 -11 5 -20 11 -20 6 0 8 -7 5 -16 -3 -8 -2 -12 4 -9 5 3 14
-4 20 -15 6 -11 7 -20 3 -20 -4 0 -3 -4 3 -8 7 -4 21 -23 31 -42 11 -19 95
-163 186 -319 92 -156 163 -289 160 -294 -3 -6 -2 -7 4 -4 5 4 16 -6 24 -21 8
-15 16 -29 19 -32 14 -12 38 -75 33 -84 -3 -5 -1 -6 5 -2 14 8 36 -30 26 -46
-4 -6 -3 -8 3 -5 13 8 55 -67 45 -79 -4 -4 -1 -4 6 0 6 4 12 4 12 -1 0 -4 23
-46 51 -93 28 -47 51 -89 52 -94 3 -15 39 -56 46 -51 4 2 17 24 30 49 12 25
27 46 33 46 6 0 9 3 5 6 -3 3 4 23 16 43 13 20 31 53 42 73 10 20 23 34 28 31
6 -3 8 -2 5 3 -4 5 5 27 17 49 13 22 36 64 52 93 15 28 30 52 34 52 4 0 10 11
13 25 4 14 11 25 16 25 6 0 10 8 10 19 0 10 7 24 15 31 8 7 15 19 15 27 0 7 7
16 15 19 8 4 13 10 10 14 -3 5 0 14 7 22 7 7 21 29 31 48 37 74 85 152 96 160
7 4 12 11 12 16 -2 16 60 124 70 124 6 0 8 4 4 9 -3 5 0 15 7 23 7 7 21 29 30
48 10 19 23 44 30 55 35 56 42 71 40 79 -2 5 4 6 12 3 10 -4 13 -1 10 7 -3 7
27 67 67 134 64 109 73 120 85 104 7 -9 14 -23 14 -29 0 -7 5 -13 10 -13 6 0
10 -4 10 -9 0 -5 23 -48 51 -95 27 -47 47 -91 43 -98 -4 -7 -3 -8 5 -4 6 4 14
0 18 -10 3 -9 21 -42 39 -72 19 -30 31 -60 27 -66 -3 -6 -3 -8 2 -4 8 8 97
-137 98 -159 0 -7 3 -11 5 -8 3 3 10 -5 17 -18 7 -12 27 -48 44 -80 l33 -58
-19 -37 c-24 -47 -55 -95 -68 -104 -5 -4 -6 -8 -2 -8 10 0 -31 -71 -47 -82 -6
-4 -7 -8 -2 -8 5 0 4 -6 -2 -13 -5 -6 -22 -34 -37 -62 -15 -27 -33 -54 -40
-60 -6 -5 -13 -14 -14 -20 -4 -26 -13 -45 -22 -45 -5 0 -9 -7 -9 -16 0 -9 -5
-12 -12 -8 -7 4 -8 3 -4 -4 8 -13 -23 -72 -38 -72 -5 0 -7 -3 -3 -6 3 -3 -14
-39 -39 -79 -24 -40 -44 -78 -44 -84 0 -6 -3 -11 -8 -11 -4 0 -13 -14 -21 -32
-8 -18 -35 -66 -61 -107 -26 -42 -50 -83 -53 -91 -24 -51 -77 -135 -86 -133
-6 2 -8 -3 -6 -10 3 -6 -5 -28 -17 -47 -12 -19 -27 -44 -34 -55 -37 -66 -67
-119 -108 -190 -44 -78 -55 -110 -38 -117 5 -2 26 -34 47 -73 21 -38 44 -73
49 -77 6 -4 7 -8 2 -8 -5 0 -2 -8 6 -17 33 -40 99 -164 92 -175 -4 -6 -3 -8 4
-4 6 3 17 -6 25 -21 20 -38 164 -286 174 -298 4 -6 17 -28 28 -50 11 -22 24
-43 30 -47 7 -5 7 -8 0 -8 -6 0 -6 -3 1 -8 10 -7 59 -82 59 -92 0 -3 8 -16 17
-30 58 -90 97 -163 91 -173 -3 -5 -2 -7 4 -4 5 3 18 -11 28 -31 11 -20 23 -40
28 -43 4 -3 9 -15 10 -27 0 -11 4 -19 7 -17 3 2 17 -17 31 -43 13 -26 27 -49
32 -50 4 -2 7 -8 7 -14 0 -5 13 -28 28 -51 15 -23 34 -55 42 -72 8 -16 20 -35
25 -41 12 -13 38 -6 29 7 -3 6 1 18 9 27 8 9 26 38 41 64 66 120 79 143 86
148 3 3 12 20 19 37 7 18 17 30 22 27 5 -3 8 -2 7 3 -4 14 13 53 23 53 6 0 8
4 4 9 -3 5 -1 12 4 15 5 4 22 31 37 61 16 30 31 55 34 55 4 0 12 16 20 35 8
19 17 35 22 35 4 0 8 4 8 9 0 5 38 75 85 156 47 81 85 151 85 156 0 5 4 9 8 9
4 0 14 16 21 36 7 19 19 38 27 41 8 3 14 12 14 19 0 16 29 65 45 76 5 4 6 8 1
8 -5 0 -3 7 4 15 17 21 49 76 56 98 4 9 11 17 16 17 5 0 7 4 3 9 -3 6 3 14 12
20 10 5 17 11 15 13 -4 4 9 41 17 48 6 5 25 38 50 85 9 16 18 32 21 35 3 3 12
19 21 35 9 17 42 74 73 127 31 54 57 100 56 103 0 3 6 13 15 21 8 9 15 22 15
30 0 8 4 14 9 14 5 0 12 11 15 25 4 14 11 25 16 25 6 0 10 4 10 9 0 16 92 171
102 171 5 0 7 4 4 9 -3 4 7 28 22 52 15 24 33 56 41 71 8 15 19 25 24 21 6 -3
7 -1 3 5 -4 6 5 29 19 51 14 23 25 45 25 51 0 5 4 10 9 10 5 0 13 9 16 20 12
38 86 155 96 152 6 -1 8 2 5 7 -7 11 14 61 26 61 4 0 8 5 8 10 0 17 101 190
111 190 5 0 8 3 6 8 -3 11 66 142 75 142 4 0 8 7 8 15 0 8 4 15 10 15 5 0 9 3
8 8 -2 4 8 25 21 46 l25 39 -27 51 c-15 28 -50 89 -78 136 -28 47 -51 89 -52
95 -1 5 -10 18 -19 29 -10 11 -18 23 -18 27 0 5 -11 25 -25 45 -14 21 -23 45
-20 53 3 9 3 12 -1 8 -9 -9 -75 94 -68 105 3 4 1 8 -5 8 -6 0 -18 17 -28 38
-9 20 -20 39 -24 42 -14 11 -38 68 -31 75 4 5 1 5 -5 1 -7 -4 -13 -2 -13 4 0
7 -8 24 -18 38 -11 15 -33 52 -49 82 -17 30 -63 110 -102 177 -39 68 -71 127
-71 132 0 5 -4 11 -9 13 -5 2 -11 10 -13 18 -2 8 -5 17 -9 20 -13 12 -68 110
-61 110 4 0 2 4 -4 8 -12 8 -27 33 -175 293 -9 16 -22 35 -29 43 -6 9 -9 20
-5 26 3 5 2 10 -3 10 -10 0 -92 136 -92 151 0 5 -3 9 -7 9 -5 0 -17 19 -28 43
-11 23 -22 44 -25 47 -19 18 -129 224 -123 232 3 6 2 8 -4 5 -11 -7 -80 110
-75 127 2 6 0 8 -4 4 -4 -4 -20 18 -37 50 -16 31 -35 64 -42 72 -8 8 -15 22
-17 30 -2 8 -5 17 -8 20 -6 5 -32 48 -71 117 -10 17 -15 34 -12 37 4 3 1 6 -4
6 -6 0 -28 30 -48 68 -21 37 -49 84 -62 104 -14 21 -22 42 -17 49 4 8 3 9 -4
5 -7 -4 -12 -1 -12 8 0 9 -4 16 -10 16 -5 0 -10 4 -10 9 0 5 -17 39 -37 75
-37 64 -39 66 -78 66 -223 3 -3445 4 -3457 2z"/>
</g>
</svg>
